inDegrees=no
num_controls=7
num_derivatives=13
num_iterations=121
num_multipliers=7
num_parameters=0
num_slacks=7
num_states=26
objective=0.496919
objective_accelerations=0.042643
objective_balance=0.003627
objective_effort=0.039451
objective_height=0.405676
objective_ligament=0.005521
solver_duration=1393.077070
status=Solve_Succeeded
success=true
DataType=double
version=3
OpenSimVersion=4.5
endheader
time	/jointset/ground_pelvis/pelvis_tilt/value	/jointset/ground_pelvis/pelvis_tx/value	/jointset/ground_pelvis/pelvis_ty/value	/jointset/hip_r/hip_flexion_r/value	/jointset/hip_r/hip_adduction_r/value	/jointset/hip_r/hip_rotation_r/value	/jointset/back/lumbar_extension/value	/jointset/patellofemoral_r/patellar_flexion_r/value	/jointset/knee_r/knee_flexion_r/value	/jointset/knee_r/knee_adduction_r/value	/jointset/knee_r/knee_rotation_r/value	/jointset/ankle_r/ankle_angle_r/value	/jointset/subtalar_r/subtalar_angle_r/value	/jointset/ground_pelvis/pelvis_tilt/speed	/jointset/ground_pelvis/pelvis_tx/speed	/jointset/ground_pelvis/pelvis_ty/speed	/jointset/hip_r/hip_flexion_r/speed	/jointset/hip_r/hip_adduction_r/speed	/jointset/hip_r/hip_rotation_r/speed	/jointset/back/lumbar_extension/speed	/jointset/patellofemoral_r/patellar_flexion_r/speed	/jointset/knee_r/knee_flexion_r/speed	/jointset/knee_r/knee_adduction_r/speed	/jointset/knee_r/knee_rotation_r/speed	/jointset/ankle_r/ankle_angle_r/speed	/jointset/subtalar_r/subtalar_angle_r/speed	/forceset/tau_hip_flexion_r	/forceset/tau_hip_adduction_r	/forceset/tau_hip_rotation_r	/forceset/tau_knee_flexion_r	/forceset/tau_ankle_angle_r	/forceset/tau_subtalar_angle_r	/forceset/tau_lumbar_extension	lambda_cid13_p0	lambda_cid14_p0	lambda_cid14_p1	lambda_cid14_p2	lambda_cid14_p3	lambda_cid14_p4	lambda_cid14_p5	/jointset/ground_pelvis/pelvis_tilt/accel	/jointset/ground_pelvis/pelvis_tx/accel	/jointset/ground_pelvis/pelvis_ty/accel	/jointset/hip_r/hip_flexion_r/accel	/jointset/hip_r/hip_adduction_r/accel	/jointset/hip_r/hip_rotation_r/accel	/jointset/back/lumbar_extension/accel	/jointset/patellofemoral_r/patellar_flexion_r/accel	/jointset/knee_r/knee_flexion_r/accel	/jointset/knee_r/knee_adduction_r/accel	/jointset/knee_r/knee_rotation_r/accel	/jointset/ankle_r/ankle_angle_r/accel	/jointset/subtalar_r/subtalar_angle_r/accel	gamma_cid13_p0	gamma_cid14_p0	gamma_cid14_p1	gamma_cid14_p2	gamma_cid14_p3	gamma_cid14_p4	gamma_cid14_p5
0.5	-0.1404376002125914	0.03232019432774758	0.8421443347731066	0.8142586296686486	-0.2243972090460774	-0.1304518758150628	-0.3244548981830051	0.7669781175787402	0.7669781175788355	0.01098912701695866	0.1745284950338609	0.2698886564096959	0.06618375410327068	-0.3723522669629001	-0.1325987101884755	-0.4185465033317382	1.741684090201193	0.003055656563371216	0.2222352391473155	-0.6000451714858559	1.882731642286306	1.882731642286271	-0.3723264625418357	2.435972165838804e-06	0.6147371921589528	0.1877220366802095	-0.1030024135873252	-0.01875598786890316	0.01162703763025269	-0.3502399234146109	0.07376529819621973	-0.008292536816299807	0.1533084100208301	-27.35226617712874	-18.02985863105656	-3.508439949961687	-2.692865286768324	2.534561722022068	-663.2303796453104	60.12394637275375	0.2024923830873225	0.3723564264231184	-0.4513488284547985	-1.025860802372955	-0.1427354356321411	-0.6020576301934645	1.449986452620855	-1.259207196473527	-1.25920719647353	0.4701272611101457	-0.07672539385611009	-0.602779198596082	-0.1910072365292838	-4.603029030862115e-08	3.229711628405336e-07	2.820822639335353e-06	2.775911162834357e-06	-5.389094723829135e-07	2.972464168790967e-07	7.356957097413916e-07
0.51	-0.1441504807766279	0.0310130020604663	0.8379372639135576	0.8316217566330598	-0.2243733513625798	-0.1282653322872129	-0.330381917902244	0.7857395850929542	0.7857395850930103	0.007285234930413273	0.1745285572930263	0.2760051080282436	0.06805181835804958	-0.3701705306048156	-0.1288220409080992	-0.4227695633702271	1.730692693624846	0.001710108805524743	0.215082741578094	-0.5852688389909682	1.869285705589373	1.869285705589299	-0.3684199610186648	2.30093432993545e-06	0.6084647650047001	0.18584886165424	-0.1092496329889571	-0.01674156485295218	0.01203698966966355	-0.3536782860630015	0.07014328258876651	-0.007628805482185674	0.158964009794366	-26.19445624226698	-19.39409299831159	-3.597410721234454	-2.52064011609689	3.040073418887316	-667.4742846845065	59.98254288481714	0.2340328417037235	0.3828693994234989	-0.3930104842622288	-1.173037390953431	-0.1306603075660802	-0.7703278113570716	1.504946653556621	-1.42870099503062	-1.42870099503643	0.3562203511107229	0.03774146506624435	-0.6528228682564161	-0.1909940310019613	-4.466205643058689e-08	3.192095464376383e-07	2.811340169380091e-06	2.70142808790798e-06	-5.360071532963825e-07	2.845365689683395e-07	8.347848019313244e-07
0.52	-0.1478399402611762	0.02974408593010453	0.8336909172750804	0.8488675179705701	-0.2243629883290016	-0.1261500101332694	-0.3361584762954073	0.8043583104224533	0.8043583104224697	0.003621469609737809	0.1745284980065758	0.2820561656963655	0.06990004658349452	-0.367668051065344	-0.1249434828045747	-0.4264016591173676	1.718210964820986	0.0003567265794710288	0.2079909643660496	-0.5699529062707259	1.854183205343345	1.854183205343232	-0.3643011093678878	-2.18731509630776e-05	0.6016584020737852	0.1837548308134234	-0.1154968523905887	-0.0147271418370008	0.01244694170907354	-0.3571166487113922	0.06652126698131336	-0.006965074148070981	0.1646196095679021	-25.02638017725056	-20.76593729350036	-3.69103125753915	-2.343881295887424	3.567619131802782	-671.8272640036764	59.80345157259161	0.2666410193647359	0.3927341910527815	-0.3331559701851141	-1.323927247875565	-0.1443023292735906	-0.589913558758038	1.557906497691747	-1.590519906292472	-1.590519906292466	0.5125972866313262	-0.08153320334753203	-0.709566353928558	-0.23517839949872	-4.239988995072445e-08	3.123229165702276e-07	2.761673647918397e-06	2.59970855381213e-06	-5.26592443507366e-07	2.702038680429772e-07	9.131167691555167e-07
0.53	-0.1515028758108317	0.02851441595083803	0.8294112330532913	0.8659812121345103	-0.2243662082788536	-0.1241054435104888	-0.3417793589949875	0.8228178596407802	0.8228178596408187	-2.784579743505134e-07	0.1745281249511598	0.2880365538009612	0.07172622185471653	-0.3648736864090797	-0.1209775076468851	-0.4294331458523152	1.704294526665307	-0.0009961721497462792	0.2008874173632003	-0.5541544444038161	1.837460529437563	1.837460529437503	-0.3600647528778351	-3.564050500190961e-05	0.5943388087652461	0.1814531520591142	-0.1214036399105841	-0.01283881176175102	0.0126722187429219	-0.3609025981276445	0.06341824012168032	-0.006258175871841093	0.1699920800436416	-23.85043143970958	-21.96985305758735	-3.733574805488736	-2.1786113750841	3.983332714189796	-676.1988319545419	59.7430202482641	0.2926612178186809	0.4003756589511114	-0.2727865818095327	-1.46047118018953	-0.1294890510715368	-0.7757122085954402	1.601194417405587	-1.753049523058061	-1.753049523050199	0.3771855526957281	0.04179437787060889	-0.7553046334297928	-0.2309921357593917	-5.054832666874865e-08	2.504327205140248e-07	2.470614882343814e-06	2.049222551487389e-06	-4.530872911080161e-07	2.052902698281507e-07	9.400256047312309e-07
0.54	-0.155136502308112	0.02732477501931325	0.8251043056528207	0.8829487481007389	-0.224382698297263	-0.1221329397452459	-0.3472401813986555	0.8411022004819817	0.8411022004820428	-0.003580056816285273	0.1745282327980632	0.2939413162096489	0.07352871443392296	-0.3618062405903604	-0.1169376732562294	-0.4318502948536603	1.688979325278607	-0.002297287131993089	0.1935783928584684	-0.5379408470883074	1.819141529918299	1.819141529918291	-0.3559071674876431	7.430731306582299e-05	0.5865332628921782	0.17901829241031	-0.1273104274305791	-0.01095048168650052	0.01289749577677102	-0.3646885475438968	0.06031521326204743	-0.005551277595610277	0.1753645505193814	-22.66943953288985	-23.18203649108266	-3.779514030382092	-2.010572009184759	4.419464224796589	-680.6925795748627	59.65413817162019	0.3212572518557418	0.4075060376460302	-0.2102884234646301	-1.603679894079862	-0.1339455798794918	-0.6310090591345737	1.640933587411549	-1.909784628988956	-1.90978462898896	0.4968430666591874	-0.05679016892622069	-0.8067568668343514	-0.2618145783977218	-7.021487756315818e-08	1.276875150574556e-07	1.912483846686883e-06	1.002228967292379e-06	-3.086735639057433e-07	8.441482780370357e-08	9.100407627384155e-07
0.55	-0.1587380245618649	0.02617586177584661	0.8207762945760909	0.8997561167027643	-0.2244125617472653	-0.1202310954236141	-0.3525369739982797	0.859195649680225	0.859195649680269	-0.007115291864615256	0.1745283232406785	0.2997655108132503	0.07530522085469875	-0.3584516865414136	-0.1128370021773565	-0.4336482042517501	1.672272319877816	-0.003666466718348417	0.18675698311971	-0.5213608120252859	1.799303361067822	1.799303361067764	-0.3511598581217348	-3.400562301701113e-05	0.5782353537062165	0.1762620792657146	-0.1331386824090878	-0.008966170021786162	0.0129753770701535	-0.3683277657662456	0.05715487540293485	-0.004877270391591361	0.1806365244840235	-21.48658381562762	-24.41027582188896	-3.8473485591965	-1.833561727596082	4.883062001870004	-685.0988460766695	59.48970180617101	0.3495353187774905	0.4124976514966057	-0.1489810653482267	-1.737516853856562	-0.1368814686546559	-0.7128009413472184	1.675067587421826	-2.057559124042356	-2.057559124049879	0.4609063415874989	0.01559573889226597	-0.8519009837634104	-0.2853577124375051	-8.02295849558037e-08	4.702468417959103e-08	1.507760719332601e-06	3.146231501115668e-07	-2.091657052513247e-07	5.076915633883117e-09	8.652827280544938e-07
0.5600000000000001	-0.1623046051076554	0.02506818524486645	0.816433416631907	0.9163897540526267	-0.2244558124572597	-0.1183984840013895	-0.3576662604229385	0.8770833719677702	0.8770833719677967	-0.01060360752528038	0.1745280200729007	0.3055046077171348	0.07705359853803918	-0.3548178989979343	-0.108690330758933	-0.4348236683445225	1.654233074845913	-0.004974739130347696	0.1797318129769217	-0.5044396120952895	1.777996147778734	1.777996147778626	-0.346523289954592	-4.414765436766733e-06	0.5695137229488014	0.1733925449232374	-0.1389669373875959	-0.006981858357071181	0.01305325836353725	-0.3719669839885943	0.05399453754382251	-0.004203263187571154	0.1859084984486659	-20.30546724939012	-25.64621956646499	-3.915517019603152	-1.65765674591611	5.353672565413439	-689.6225000176023	59.35116287898185	0.3771039507622226	0.4167061055561435	-0.08579936240114673	-1.870127820302095	-0.1217641450082812	-0.6717611399405395	1.709166560806564	-2.203593516711057	-2.203593516711012	0.4746948269061323	-0.02920941019360945	-0.8915011811250257	-0.2844788179740508	-7.866208014633276e-08	1.686070279617046e-08	1.28712708194149e-06	5.82826533477759e-08	-1.635448888543293e-07	-2.441596071038691e-08	8.02796862141245e-07
0.5700000000000001	-0.1658334696467817	0.02400216182649024	0.8120819128842655	0.9328364141512556	-0.2245120134579462	-0.1166357296952044	-0.3626248819095956	0.8947508423759443	0.8947508423759503	-0.01404487299490566	0.1745279280096643	0.3111543785351164	0.07877242549501663	-0.3509126158024787	-0.1045105233915023	-0.4353723162384147	1.634888028504165	-0.006260995883546902	0.1728262058955709	-0.487248850956066	1.755268461615549	1.755268461615561	-0.3417113984622047	-8.960852086026302e-06	0.560375323043063	0.1703446150590421	-0.1444574688819417	-0.005255450772692671	0.01309817658152402	-0.3758367309098156	0.05124067938874552	-0.003555126077023235	0.1908756478195219	-19.13253292451202	-26.74693828387343	-3.971474467703656	-1.483435952330201	5.75724399784505	-694.0249631074541	59.27057360172524	0.4035975042943283	0.419164933236739	-0.02369098083339297	-1.998331641608305	-0.1313238972046841	-0.6989866442266305	1.729406032478399	-2.341761447124116	-2.341761447106173	0.4873524241391282	0.01469002111974771	-0.9348101567863272	-0.3190122745543567	-7.642707971132136e-08	-4.774261492888582e-09	1.105814023370456e-06	-1.281892450215212e-07	-1.28693193694605e-07	-4.270959544713473e-08	7.41274865458495e-07
0.58	-0.1693220099538818	0.02297804585796839	0.807728063962095	0.9490832960663677	-0.2245809305175107	-0.1149418366902315	-0.3674105207564606	0.9121841548662859	0.9121841548662727	-0.01743743632686072	0.1745279439313642	0.316710805201743	0.08045996071256971	-0.34675305259274	-0.1003088407880606	-0.4352927032503119	1.614277438142532	-0.0075179509059035	0.1659595527344491	-0.4698430841369179	1.73116456421229	1.731164564212422	-0.3367828624204533	1.718222207787474e-05	0.5508448926778019	0.1671341970383635	-0.1499480003762872	-0.003529043188314458	0.01314309479951572	-0.3797064778310367	0.04848682123366838	-0.002906988966475912	0.1958427971903781	-17.97167011050507	-27.85371546647321	-4.026273470973884	-1.311934174437465	6.15865268449235	-698.523449642184	59.22582428035037	0.4279599536188419	0.4210811527583384	0.03985281399787004	-2.123236624279016	-0.1159037988397577	-0.6639703558947415	1.752167696791468	-2.478835764725774	-2.478835764725787	0.4980237367789507	-0.02307157803098609	-0.9699072730295442	-0.3169764492707192	-7.332278264769923e-08	-1.530166863580263e-08	9.757091604720794e-07	-2.236694803654331e-07	-1.078664006113266e-07	-4.641817134617962e-08	6.810081403317442e-07
0.59	-0.1727677259748479	0.02199599221174791	0.8033781476640813	0.9651179158413332	-0.2246622646072851	-0.1133159218429857	-0.3720212053916913	0.9293697247511626	0.9293697247511508	-0.02077981101283151	0.1745280736518656	0.3221700083217197	0.0821145649288665	-0.342350148150599	-0.09610413476766064	-0.4345859110197312	1.592448445151303	-0.008741214523213244	0.1592313555149659	-0.4522770120750264	1.705733666062236	1.705733666062296	-0.3316768048920464	1.374973699321212e-05	0.540934769775495	0.1637627026645283	-0.1552148252549782	-0.001860165011625995	0.01315973894624786	-0.3835469955961658	0.045776528139163	-0.00233591867855527	0.2005719394271761	-16.82511840078853	-28.9444046042104	-4.118415845084565	-1.126837565526407	6.607385767076943	-702.8594681606285	59.11747131697147	0.4524524512967926	0.4198092469803646	0.1017795093189873	-2.242444974798952	-0.1243783673419222	-0.6761568051907532	1.761351586010735	-2.607564544457431	-2.6075645444682	0.5193020021171135	0.01173985253001905	-1.010734111106351	-0.3507191524211143	-7.047908599611352e-08	-2.53353272545094e-08	8.494209726200383e-07	-3.131575141402285e-07	-8.795247352820231e-08	-4.893909455338584e-08	6.172315420678283e-07
